<svg width="620" height="500" viewBox="0 0 620 500" fill="none" xmlns="http://www.w3.org/2000/svg">
    <g clip-path="url(#clip0_311_19)">
        <path fill-rule="evenodd" clip-rule="evenodd"
              d="M405.443 143.964L404.212 145.847C377.152 133.618 346 128.842 314.411 135.464C237.028 151.687 187.872 226.61 203.699 303.979C219.971 381.597 295.301 430.817 372.919 414.545C404.508 407.923 431.119 391.038 450.99 368.97L452.87 370.199C452.89 370.08 452.91 369.961 452.93 369.842C452.95 369.725 452.969 369.608 452.988 369.492L624.931 461.585C582.466 524.193 519.258 573.248 442.251 596.929L440.446 597.307C438.19 597.78 436.207 598.432 434.223 599.083C432.24 599.734 430.256 600.386 428 600.859L418.975 602.751L413.559 603.886L412.657 604.075L409.949 604.643C407.242 605.21 404.488 605.552 401.734 605.894L401.732 605.895C398.977 606.237 396.222 606.579 393.514 607.146C315.141 619.808 249.374 607.214 192.356 582.422L192.349 582.424C125.859 554.131 70.8673 509.969 21.2817 470.148C-46.397 415.797 -104.005 369.534 -167.033 382.747L-166.317 382.595L-166.866 382.71C-104.044 369.435 -69.992 303.732 -30.0348 226.636C-0.624433 169.889 31.9849 106.97 81.6196 54.2425C81.6223 54.242 81.625 54.2415 81.6277 54.2409C123.888 8.63602 179.06 -29.3115 255.921 -49.1933L272.166 -52.599L274.874 -53.1666L275.777 -53.3559L281.192 -54.4911L290.217 -56.3832C292.473 -56.8562 294.551 -57.0563 296.63 -57.2564C298.708 -57.4564 300.786 -57.6565 303.042 -58.1295L304.847 -58.5079C384.881 -67.7487 462.469 -48.2104 526.504 -7.92905L405.835 144.565C405.705 144.365 405.574 144.164 405.443 143.964Z"
              fill="url(#paint0_linear_311_19)" style="mix-blend-mode:multiply"/>
    </g>
    <defs>
        <linearGradient id="paint0_linear_311_19" x1="-75.172" y1="127.996" x2="651.284" y2="388.886"
                        gradientUnits="userSpaceOnUse">
            <stop stop-color="#FF9966"/>
            <stop offset="0.2304" stop-color="#FF8064"/>
            <stop offset="0.4764" stop-color="#FF6D63"/>
            <stop offset="0.7299" stop-color="#FF6262"/>
            <stop offset="1" stop-color="#FF5E62"/>
        </linearGradient>
        <clipPath id="clip0_311_19">
            <rect width="620" height="500" fill="white"/>
        </clipPath>
    </defs>
</svg>
